<svg width="144" height="144" viewBox="0 0 144 144" fill="none" xmlns="http://www.w3.org/2000/svg">
<g clip-path="url(#clip0_63_4)">
<rect width="144" height="144" rx="72" fill="url(#paint0_linear_63_4)"/>
<path d="M68.0909 107H42.2841V37.1818H68.0568C75.1705 37.1818 81.2955 38.5795 86.4318 41.375C91.5909 44.1477 95.5682 48.1477 98.3636 53.375C101.159 58.5795 102.557 64.8068 102.557 72.0568C102.557 79.3295 101.159 85.5795 98.3636 90.8068C95.5909 96.0341 91.625 100.045 86.4659 102.841C81.3068 105.614 75.1818 107 68.0909 107ZM59.1591 92.6136H67.4432C71.3523 92.6136 74.6591 91.9545 77.3636 90.6364C80.0909 89.2955 82.1477 87.125 83.5341 84.125C84.9432 81.1023 85.6477 77.0795 85.6477 72.0568C85.6477 67.0341 84.9432 63.0341 83.5341 60.0568C82.125 57.0568 80.0455 54.8977 77.2955 53.5795C74.5682 52.2386 71.2045 51.5682 67.2045 51.5682H59.1591V92.6136Z" fill="url(#paint1_linear_63_4)"/>
</g>
<defs>
<linearGradient id="paint0_linear_63_4" x1="-2.41482e-06" y1="40" x2="109.5" y2="126.5" gradientUnits="userSpaceOnUse">
<stop stop-color="#0C53DC"/>
<stop offset="1" stop-color="#3598DB"/>
</linearGradient>
<linearGradient id="paint1_linear_63_4" x1="37" y1="72" x2="178.5" y2="159.5" gradientUnits="userSpaceOnUse">
<stop stop-color="white"/>
<stop offset="1" stop-color="#3598DB"/>
</linearGradient>
<clipPath id="clip0_63_4">
<rect width="144" height="144" rx="72" fill="white"/>
</clipPath>
</defs>
</svg>
